<?xml version="1.0" encoding="utf-8"?>
<!-- Generator: Adobe Illustrator 21.0.2, SVG Export Plug-In . SVG Version: 6.00 Build 0)  -->
<svg version="1.1" id="GLYPHS" xmlns="http://www.w3.org/2000/svg" xmlns:xlink="http://www.w3.org/1999/xlink" x="0px" y="0px"
	 viewBox="0 0 17 20.5" style="enable-background:new 0 0 17 20.5;" xml:space="preserve">
<style type="text/css">
	.st0{fill:#0090FF;}
</style>
<g id="MSP_Bag_Empty_3_">
	<g id="MSP_Bag_full_1_">
		<path class="st0" d="M1.5,3.5C0.7,3.5,0,4.2,0,5v14c0,0.8,0.7,1.5,1.5,1.5h14c0.8,0,1.5-0.7,1.5-1.5V5c0-0.8-0.7-1.5-1.5-1.5H1.5z
			 M16,19c0,0.3-0.2,0.5-0.5,0.5h-14C1.2,19.5,1,19.3,1,19V5c0-0.3,0.2-0.5,0.5-0.5h14C15.8,4.5,16,4.7,16,5V19z"/>
		<circle class="st0" cx="8.5" cy="11.5" r="3"/>
	</g>
	<g>
		<path class="st0" d="M12.8,4.5H4.2V4c0-2.5,2.2-4,4.3-4s4.3,1.5,4.3,4V4.5z M5.2,3.5h6.5C11.5,1.9,9.9,1,8.5,1S5.5,1.9,5.2,3.5z"
			/>
	</g>
</g>
</svg>
