<?xml version="1.0" encoding="utf-8"?>
<!-- Generator: Adobe Illustrator 21.0.2, SVG Export Plug-In . SVG Version: 6.00 Build 0)  -->
<svg version="1.1" id="GLYPHS" xmlns="http://www.w3.org/2000/svg" xmlns:xlink="http://www.w3.org/1999/xlink" x="0px" y="0px"
	 viewBox="0 0 18.7 22.3" style="enable-background:new 0 0 18.7 22.3;" xml:space="preserve">
<style type="text/css">
	.st0{fill:#FFFFFF;}
</style>
<g id="MSP_Bag_Empty_3_">
	<g id="MSP_Bag_Empty_1_">
		<path class="st0" d="M2.3,4.2c-0.8,0-1.5,0.7-1.5,1.5v14c0,0.8,0.7,1.5,1.5,1.5h14c0.8,0,1.5-0.7,1.5-1.5v-14
			c0-0.8-0.7-1.5-1.5-1.5H2.3z M16.8,19.7c0,0.3-0.2,0.5-0.5,0.5h-14c-0.3,0-0.5-0.2-0.5-0.5v-14c0-0.3,0.2-0.5,0.5-0.5h14
			c0.3,0,0.5,0.2,0.5,0.5V19.7z"/>
	</g>
	<g>
		<path class="st0" d="M13.6,5.2H5V4.7c0-2.5,2.2-4,4.3-4s4.3,1.5,4.3,4V5.2z M6,4.2h6.5c-0.2-1.6-1.8-2.5-3.2-2.5S6.3,2.6,6,4.2z"
			/>
	</g>
</g>
</svg>
