<svg xmlns="http://www.w3.org/2000/svg" viewBox="0 0 30 25.7" width="30" height="30"><title>heart-small</title><g id="Capa_2" data-name="Capa 2"><g id="Capa_1-2" data-name="Capa 1"><path d="M14.9,25.7a.91.91,0,0,1-.7-.3L3.8,15.3c-.1-.1-.3-.2-.5-.4s-.5-.6-.9-1.1a15.26,15.26,0,0,1-1.1-1.6,19.47,19.47,0,0,1-.9-2A6.56,6.56,0,0,1,0,7.9,7.79,7.79,0,0,1,2.1,2.1,8,8,0,0,1,8,0a5.22,5.22,0,0,1,2.1.4,12.45,12.45,0,0,1,2,1c.6.4,1.2.8,1.6,1.1s.9.7,1.3,1.1a6.88,6.88,0,0,1,1.3-1.1,11.07,11.07,0,0,1,1.6-1.1,12.45,12.45,0,0,1,2-1A5.22,5.22,0,0,1,22,0a8,8,0,0,1,5.9,2.1A7.79,7.79,0,0,1,30,7.9c0,2.5-1.3,5-3.8,7.5l-10.4,10a1.61,1.61,0,0,1-.9.3"  style="stroke: #f44336;fill: #FFF0;stroke-width: 2px;transform: scale(.8);transform-origin: center;"/></g></g></svg>