<?xml version="1.0" encoding="utf-8"?>
<!-- Generator: Adobe Illustrator 21.0.2, SVG Export Plug-In . SVG Version: 6.00 Build 0)  -->
<svg version="1.1" id="Capa_1" xmlns="http://www.w3.org/2000/svg" xmlns:xlink="http://www.w3.org/1999/xlink" x="0px" y="0px"
	 viewBox="0 0 512 512" style="enable-background:new 0 0 512 512;" xml:space="preserve">
<style type="text/css">
	.st0{fill:#0090FF;}
	.st1{fill:#FFFFFF;}
</style>
<g>
	<path id="WhatsApp_1_" class="st0" d="M260.7,39.7c-116.5,0-211.3,94.1-211.3,209.7c0,45.9,15,88.4,40.3,122.9l-26.4,77.9
		l81.2-25.8c33.4,21.9,73.3,34.7,116.3,34.7C377.2,459.1,472,365,472,249.4S377.2,39.7,260.7,39.7z M387.6,306.8
		c-1.6-2.5-5.7-4.1-11.8-7.1c-6.2-3.1-36.5-17.9-42.1-19.9c-5.6-2-9.8-3.1-13.9,3.1c-4.1,6.1-15.9,19.9-19.5,24
		c-3.6,4.1-7.2,4.6-13.4,1.5c-6.2-3.1-26-9.5-49.5-30.3c-18.3-16.2-30.7-36.2-34.3-42.3c-3.6-6.1-0.4-9.4,2.7-12.5
		c2.8-2.7,6.2-7.1,9.2-10.7c3.1-3.6,4.1-6.1,6.2-10.2c2.1-4.1,1-7.6-0.5-10.7c-1.5-3.1-13.9-33.1-19-45.4
		c-5.1-12.2-10.3-10.2-13.9-10.2c-3.6,0-7.7-0.5-11.8-0.5s-10.8,1.5-16.4,7.6c-5.6,6.1-21.6,20.9-21.6,51
		c0,30.1,22.1,59.1,25.2,63.2c3.1,4.1,42.6,67.8,105.2,92.3c62.6,24.5,62.6,16.3,73.9,15.3c11.3-1,36.4-14.8,41.6-29.1
		C389.1,321.6,389.1,309.4,387.6,306.8z"/>
	<path id="WhatsApp" class="st1" d="M512,249.4c0,137.7-112.5,249.4-251.3,249.4c-44.1,0-85.5-11.3-121.5-31L0,512l45.4-133.8
		C22.5,340.6,9.3,296.5,9.3,249.4C9.3,111.7,121.8,0,260.7,0C399.5,0,512,111.7,512,249.4z M260.7,39.7
		c-116.5,0-211.3,94.1-211.3,209.7c0,45.9,15,88.4,40.3,122.9l-26.4,77.9l81.2-25.8c33.4,21.9,73.3,34.7,116.3,34.7
		C377.2,459.1,472,365,472,249.4S377.2,39.7,260.7,39.7z M387.6,306.8c-1.6-2.5-5.7-4.1-11.8-7.1c-6.2-3.1-36.5-17.9-42.1-19.9
		c-5.6-2-9.8-3.1-13.9,3.1c-4.1,6.1-15.9,19.9-19.5,24c-3.6,4.1-7.2,4.6-13.4,1.5c-6.2-3.1-26-9.5-49.5-30.3
		c-18.3-16.2-30.7-36.2-34.3-42.3c-3.6-6.1-0.4-9.4,2.7-12.5c2.8-2.7,6.2-7.1,9.2-10.7c3.1-3.6,4.1-6.1,6.2-10.2
		c2.1-4.1,1-7.6-0.5-10.7c-1.5-3.1-13.9-33.1-19-45.4c-5.1-12.2-10.3-10.2-13.9-10.2c-3.6,0-7.7-0.5-11.8-0.5s-10.8,1.5-16.4,7.6
		c-5.6,6.1-21.6,20.9-21.6,51c0,30.1,22.1,59.1,25.2,63.2c3.1,4.1,42.6,67.8,105.2,92.3c62.6,24.5,62.6,16.3,73.9,15.3
		c11.3-1,36.4-14.8,41.6-29.1C389.1,321.6,389.1,309.4,387.6,306.8z"/>
</g>
</svg>
